<?xml version="1.0" encoding="UTF-8" standalone="no"?>
<svg
   version="1.0"
   width="300.000000pt"
   height="300.000000pt"
   viewBox="0 0 300.000000 300.000000"
   preserveAspectRatio="xMidYMid meet"
   id="svg147"
   sodipodi:docname="G1n5obI01.svg"
   inkscape:version="1.1.2 (0a00cf5339, 2022-02-04)"
   xmlns:inkscape="http://www.inkscape.org/namespaces/inkscape"
   xmlns:sodipodi="http://sodipodi.sourceforge.net/DTD/sodipodi-0.dtd"
   xmlns:xlink="http://www.w3.org/1999/xlink"
   xmlns="http://www.w3.org/2000/svg"
   xmlns:svg="http://www.w3.org/2000/svg">
  <defs
     id="defs151">
    <linearGradient
       id="linearGradient1765"
       inkscape:swatch="solid">
      <stop
         style="stop-color:#5b4900;stop-opacity:1;"
         offset="0"
         id="stop1763" />
    </linearGradient>
    <linearGradient
       inkscape:collect="always"
       xlink:href="#linearGradient1765"
       id="linearGradient1767"
       x1="1802.7881"
       y1="2246.8943"
       x2="2660.5"
       y2="2246.8943"
       gradientUnits="userSpaceOnUse" />
  </defs>
  <sodipodi:namedview
     id="namedview149"
     pagecolor="#ffffff"
     bordercolor="#666666"
     borderopacity="1.0"
     inkscape:pageshadow="2"
     inkscape:pageopacity="0.0"
     inkscape:pagecheckerboard="0"
     inkscape:document-units="pt"
     showgrid="false"
     inkscape:zoom="2.085"
     inkscape:cx="105.27578"
     inkscape:cy="200"
     inkscape:window-width="1920"
     inkscape:window-height="1043"
     inkscape:window-x="0"
     inkscape:window-y="0"
     inkscape:window-maximized="1"
     inkscape:current-layer="g145" />
  <metadata
     id="metadata97">
Created by potrace 1.10, written by Peter Selinger 2001-2011
</metadata>
  <g
     transform="translate(0.000000,300.000000) scale(0.100000,-0.100000)"
     fill="#000000"
     stroke="none"
     id="g145">
    <path
       d="M1511 2909 c-18 -6 -48 -20 -65 -32 -185 -126 -168 -118 -284 -126 -153 -11 -202 -41 -202 -128 0 -68 47 -103 136 -103 60 0 138 39 217 108 103 89 204 152 246 152 11 0 32 -10 46 -23 39 -33 45 -102 15 -167 -19 -40 -21 -52 -11 -64 10 -11 9 -20 -2 -43 -21 -40 -48 -153 -40 -165 4 -8 -4 -9 -25 -5 -40 8 -42 -9 -4 -25 l27 -12 -27 -4 c-27 -3 -28 -5 -74 -164 -3 -11 0 -18 9 -18 8 0 18 12 21 28 23 94 38 132 52 132 18 0 17 -8 -14 -112 -9 -32 -22 -58 -28 -58 -7 0 -14 -5 -16 -12 -2 -6 -12 -9 -21 -5 -25 10 -30 5 -32 -28 0 -16 -59 -214 -129 -440 -71 -225 -129 -414 -129 -420 -2 -67 16 -82 27 -22 3 18 40 145 82 283 41 137 99 327 127 423 41 135 57 175 70 177 12 2 16 -3 13 -14 -86 -307 -100 -351 -108 -340 -5 8 -6 1 -2 -16 5 -22 4 -27 -6 -21 -9 5 -11 4 -6 -4 4 -6 4 -25 1 -43 -6 -23 -9 -27 -17 -17 -7 10 -8 8 -3 -8 8 -30 -15 -108 -27 -91 -6 9 -7 6 -3 -8 5 -19 -21 -120 -94 -364 -16 -52 -32 -115 -35 -139 -4 -24 -22 -84 -41 -133 -40 -103 -41 -116 -18 -189 50 -154 255 -237 376 -153 60 42 97 111 152 281 75 234 145 353 205 353 16 0 32 -4 35 -10 4 -6 -6 -10 -23 -10 -17 0 -37 -9 -50 -23 -34 -36 -97 -182 -138 -317 -57 -192 -95 -256 -183 -308 -39 -23 -57 -27 -116 -26 -80 0 -140 23 -198 73 -46 41 -88 126 -89 180 0 44 -12 55 -21 19 -17 -63 42 -185 114 -238 42 -30 152 -70 193 -70 58 0 130 33 183 83 63 59 99 129 137 267 49 172 85 255 136 314 38 42 70 51 111 30 17 -8 37 -13 45 -10 63 24 -107 233 -264 325 -39 23 -75 41 -81 41 -33 0 12 -61 128 -175 97 -95 165 -144 204 -145 21 0 23 -20 2 -20 -9 0 -46 15 -83 34 -51 26 -86 56 -147 122 -103 113 -125 143 -125 172 0 15 -5 22 -12 19 -41 -14 51 -178 149 -267 30 -28 52 -50 48 -50 -17 0 -66 33 -92 63 l-31 35 -60 -122 c-74 -150 -106 -239 -121 -336 -20 -129 -41 -189 -81 -231 -31 -33 -43 -39 -79 -39 -112 0 -211 97 -211 206 0 26 13 85 29 133 16 47 47 149 69 226 173 593 263 906 272 938 13 47 32 48 117 8 38 -19 65 -26 69 -20 3 6 4 12 3 14 -8 7 -133 55 -145 55 -7 0 -15 4 -18 8 -9 15 24 110 41 116 8 4 35 -4 59 -16 24 -12 45 -20 47 -17 4 6 67 316 84 414 29 173 -23 295 -141 330 -56 17 -76 17 -125 4z m112 -20 c87 -24 137 -106 137 -226 0 -91 -81 -473 -100 -473 -19 0 -21 22 -6 72 44 151 88 375 82 423 -13 110 -79 185 -165 185 -54 0 -99 -22 -191 -92 -72 -56 -109 -68 -208 -68 -81 0 -131 -16 -156 -51 -35 -50 -9 -89 59 -89 73 0 146 34 226 106 197 177 326 195 371 53 21 -68 22 -110 3 -154 -14 -34 -39 -54 -52 -41 -4 3 3 24 15 45 38 67 23 168 -29 205 -56 39 -158 -2 -280 -112 -117 -106 -216 -148 -293 -122 -55 18 -71 63 -41 119 21 41 67 58 176 64 108 6 134 16 223 85 55 42 138 81 176 82 8 0 32 -5 53 -11z m-413 -229 c0 -16 -58 -41 -111 -47 -40 -5 -49 -3 -49 10 0 28 41 47 102 47 32 0 58 -4 58 -10z m457 -167 c-3 -10 -15 -56 -28 -103 -24 -93 -33 -110 -50 -93 -12 12 22 153 46 190 18 27 40 31 32 6z m81 -1349 c27 -19 28 -38 3 -72 -10 -15 -29 -49 -41 -77 -38 -86 -43 -100 -85 -240 -40 -131 -77 -200 -125 -231 -22 -15 -44 -24 -47 -20 -4 4 -3 10 2 14 36 25 75 118 91 212 4 25 8 47 9 50 0 3 4 23 9 45 15 78 134 335 155 335 3 0 17 -7 29 -16z"
       id="path99" />
    <path
       d="M1396 2553 c-22 -2 -45 -12 -51 -20 -8 -11 -20 -14 -38 -9 -42 10 -284 -74 -375 -130 -229 -143 -381 -346 -476 -634 -44 -133 -60 -255 -52 -389 3 -57 8 -107 11 -109 3 -3 15 -1 27 5 22 9 22 14 20 139 -5 198 30 341 131 538 116 228 300 393 539 483 112 42 271 75 353 72 92 -2 105 0 105 16 0 8 -6 15 -14 15 -8 0 -16 4 -18 10 -4 12 -106 20 -162 13z"
       id="path101" />
    <path
       d="m 2273,2465 c -101,-22 -148,-49 -241,-138 -88,-85 -153,-130 -206,-143 -29,-7 -29,-7 -7,-16 33,-12 129,44 212,122 82,79 121,105 190,129 180,62 339,22 390,-97 30,-69 25,-130 -13,-188 -46,-67 -104,-97 -178,-89 -67,6 -147,41 -153,67 -7,25 29,58 64,58 52,0 106,38 78,55 -5,4 -8,1 -7,-6 2,-8 -14,-15 -43,-20 -72,-11 -129,-46 -129,-79 0,-81 204,-136 305,-83 82,44 125,112 125,200 -1,181 -163,277 -387,228 z"
       id="path103"
       style="mix-blend-mode:lighten;stroke:url(#linearGradient1767);stroke-opacity:1;fill:#e7b901;fill-opacity:1" />
    <path
       d="M1415 2423 c-341 -42 -615 -229 -759 -516 -92 -186 -133 -369 -119 -534 3 -40 6 -73 7 -73 1 0 17 5 36 10 73 22 198 30 292 20 101 -12 209 -53 249 -96 27 -29 39 -30 39 -5 0 10 31 117 69 237 62 196 104 333 217 698 19 60 34 116 34 124 0 8 14 27 31 43 18 17 32 42 36 64 l6 35 -54 -1 c-30 -1 -67 -4 -84 -6z m91 -38 c3 -8 -5 -28 -18 -44 -15 -17 -39 -77 -62 -157 -38 -134 -64 -217 -152 -494 -98 -309 -114 -362 -114 -374 0 -7 -6 -20 -13 -30 -12 -17 -16 -16 -73 13 -105 55 -292 78 -431 52 -79 -15 -84 -6 -78 132 4 87 12 137 31 199 71 224 190 410 333 516 20 15 38 29 41 32 19 20 128 80 145 80 8 0 15 4 15 8 0 4 21 14 48 21 26 7 69 20 96 28 100 32 223 41 232 18z"
       id="path105"
       style="fill:#db5477;fill-opacity:1" />
    <path
       d="M1772 2368 c-5 -13 -15 -52 -22 -88 -7 -36 -18 -71 -23 -78 -8 -11 -5 -12 19 -7 91 21 214 78 214 100 0 9 -95 61 -172 93 -4 2 -12 -7 -16 -20z m95 -49 c24 -11 43 -24 43 -29 0 -8 -111 -60 -130 -60 -13 0 -10 33 9 83 13 33 22 33 78 6z"
       id="path107"
       style="fill:#e7b901;fill-opacity:1" />
    <path
       d="M2264 2216 c-34 -18 -79 -43 -100 -56 -101 -62 -209 -90 -349 -90 -97 0 -129 -9 -89 -24 25 -10 145 -7 210 5 104 19 158 38 238 87 115 69 137 80 178 87 51 9 58 25 11 24 -22 0 -64 -14 -99 -33z"
       id="path109"
       style="fill:#e7b901;fill-opacity:1" />
    <path
       d="M1738 2169 c-24 -13 -23 -36 1 -49 30 -16 48 -12 54 12 11 39 -19 58 -55 37z"
       id="path111" />
    <path
       d="M1576 2140 c-8 -41 -5 -45 54 -75 l49 -25 10 38 c16 54 15 56 -26 70 -77 27 -80 27 -87 -8z m57 -13 c3 -8 1 -20 -4 -28 -11 -19 -34 3 -26 25 8 20 23 21 30 3z m37 -32 c0 -27 -15 -41 -25 -25 -10 16 4 62 15 55 6 -3 10 -17 10 -30z"
       id="path113" />
    <path
       d="M2079 2060 c-63 -25 -187 -50 -251 -50 -83 0 -129 -20 -78 -33 27 -7 187 17 284 43 43 12 84 19 91 16 13 -4 79 -100 105 -152 31 -60 63 -159 85 -268 44 -209 25 -416 -55 -591 -98 -219 -317 -425 -532 -501 -43 -15 -45 -11 -20 31 10 17 29 64 41 105 43 139 95 278 127 335 20 35 26 40 56 38 18 -1 48 -2 66 -3 41 -2 70 22 78 66 13 69 -73 197 -190 282 -28 20 -53 39 -56 42 -15 18 -93 57 -150 76 l-65 21 3 49 c4 52 13 64 50 64 24 0 79 47 68 57 -3 4 -17 -4 -30 -16 -18 -17 -33 -22 -63 -19 -36 3 -38 1 -41 -27 -1 -16 -14 -70 -27 -120 -39 -147 -67 -258 -72 -285 -3 -20 0 -18 14 10 57 118 79 172 71 176 -15 9 -9 72 8 78 94 36 409 -202 452 -341 23 -75 -37 -120 -102 -78 -13 9 -30 13 -39 9 -40 -15 -99 -141 -162 -347 -32 -103 -69 -183 -106 -229 -16 -21 -26 -38 -21 -38 6 0 41 9 78 21 261 80 519 326 613 583 50 141 65 232 58 376 -10 217 -64 392 -168 550 -32 50 -62 90 -66 89 -5 -1 -29 -9 -54 -19z"
       id="path115"
       style="fill:#e7b901;fill-opacity:1" />
    <path
       d="M1540 2011 c-5 -11 -10 -24 -10 -29 0 -17 101 -72 143 -78 23 -4 48 -11 55 -17 17 -13 21 -7 24 32 4 47 -25 66 -52 34 -10 -13 -25 -23 -34 -23 -18 0 -21 15 -6 25 21 13 8 32 -35 53 -56 27 -71 28 -85 3z m80 -19 c22 -21 17 -64 -6 -55 -9 3 -12 13 -9 27 5 15 4 17 -3 7 -15 -21 -34 -4 -22 20 13 23 16 24 40 1z"
       id="path117" />
    <path
       d="M2510 1978 c-42 -28 -80 -92 -80 -133 0 -16 9 -49 20 -73 32 -70 123 -101 193 -66 67 34 107 88 107 144 0 110 -149 190 -240 128z m159 -36 c14 -10 33 -38 41 -61 14 -39 13 -45 -5 -79 -28 -51 -88 -84 -140 -77 -92 14 -131 111 -77 193 34 52 126 65 181 24z"
       id="path119"
       style="fill:#e7b901;fill-opacity:1" />
    <path
       d="M1511 1903 c-13 -45 -6 -56 31 -51 22 4 28 1 25 -11 -3 -17 -5 -17 -50 -6 -23 6 -27 4 -27 -13 0 -23 82 -73 155 -94 l40 -13 -38 -3 c-48 -4 -44 -26 6 -30 28 -2 38 1 47 18 16 29 -3 50 -46 50 -18 0 -35 4 -38 8 -3 5 1 33 9 63 8 30 15 57 15 61 0 5 -105 58 -116 58 -2 0 -8 -16 -13 -37z m44 -13 c16 -18 16 -20 1 -26 -26 -10 -45 2 -39 25 7 26 15 26 38 1z m51 -53 c-10 -58 -16 -66 -46 -55 l-25 9 22 17 c11 9 24 32 28 50 10 47 29 28 21 -21z"
       id="path121" />
    <path
       d="M1782 1914 c-3 -44 -23 -58 -76 -51 l-44 6 -5 -37 c-9 -55 -9 -56 2 -60 6 -2 11 8 11 22 0 27 32 56 65 56 36 1 57 25 52 62 l-4 33 -1 -31z"
       id="path123" />
    <path
       d="M1459 1722 c-10 -44 -10 -57 -1 -60 7 -2 26 -15 42 -29 l30 -25 0 25 c0 34 25 92 34 78 8 -13 -14 -93 -29 -103 -13 -10 -43 0 -77 24 l-28 19 0 -25 c0 -13 -5 -37 -10 -52 -9 -22 -8 -29 5 -36 8 -5 27 -20 41 -33 14 -13 31 -26 37 -28 7 -2 9 -7 5 -11 -8 -9 -45 9 -75 37 -13 11 -24 19 -26 16 -4 -7 -37 -106 -37 -113 0 -3 17 -14 38 -25 21 -11 44 -27 52 -36 24 -30 0 -28 -50 3 -53 33 -53 33 -64 -20 -3 -14 -9 -33 -12 -41 -4 -11 6 -22 33 -36 22 -11 45 -27 53 -36 25 -30 0 -28 -51 3 -59 38 -59 38 -59 13 0 -11 9 -23 20 -26 28 -9 25 -25 -4 -25 -53 0 -44 -51 14 -80 40 -21 56 -37 46 -48 -10 -9 -96 36 -97 50 0 7 -4 4 -9 -7 -11 -26 -12 -37 -2 -32 4 3 18 1 31 -4 28 -11 23 -18 -33 -48 l-40 -20 35 -15 c40 -17 89 -53 89 -67 0 -15 -13 -10 -68 25 -28 19 -53 32 -55 28 -2 -4 -10 -29 -17 -56 -13 -46 -12 -51 4 -60 10 -6 34 -21 52 -33 l34 -22 0 24 c0 32 17 75 30 75 13 0 4 -41 -20 -95 -10 -22 -21 -48 -24 -57 -3 -10 -10 -18 -17 -18 -6 0 -8 7 -5 15 3 8 9 22 12 30 4 10 -3 18 -22 26 -16 5 -39 19 -50 30 l-22 21 -11 -52 c-16 -74 -14 -103 12 -140 61 -90 193 -93 247 -5 10 17 28 79 40 139 36 181 105 348 178 435 l29 35 -41 64 -41 64 -7 -41 c-4 -23 -25 -74 -47 -114 -63 -114 -90 -212 -102 -367 -14 -167 -32 -220 -79 -220 -61 0 -59 20 20 296 81 281 198 723 203 773 1 8 -24 25 -60 42 l-62 28 -12 -57z m76 -19 c-13 -55 -42 -58 -30 -4 4 18 13 31 22 31 12 0 14 -7 8 -27z m-41 -145 c-11 -21 -19 -27 -26 -20 -8 8 -6 19 6 37 23 35 40 22 20 -17z m34 -26 c-11 -46 -23 -54 -31 -22 -6 24 22 85 34 73 4 -4 3 -27 -3 -51z m-58 -82 c0 -16 -23 -60 -32 -60 -11 0 -10 13 2 44 9 25 30 36 30 16z m26 -42 c-9 -53 -16 -65 -28 -44 -6 11 -5 29 2 51 16 50 34 45 26 -7z m-56 -93 c0 -4 -8 -20 -17 -38 -13 -24 -18 -28 -21 -15 -4 20 14 58 28 58 6 0 10 -2 10 -5z m20 -45 c-13 -46 -21 -55 -32 -37 -6 11 -3 27 7 47 19 38 37 31 25 -10z m-64 -107 l-6 -28 13 24 c12 19 15 21 20 7 3 -8 2 -18 -2 -21 -5 -3 -7 -13 -5 -23 2 -9 0 -24 -6 -32 -9 -13 -11 -13 -19 -1 -5 8 -6 21 -3 30 5 14 3 14 -11 2 -20 -16 -21 -6 -6 38 14 39 34 42 25 4z m-50 -155 l-5 -33 11 33 c6 17 15 32 19 32 10 0 12 -44 3 -77 -7 -26 -24 -31 -24 -8 0 9 -6 12 -15 9 -12 -5 -15 2 -15 28 0 35 6 48 22 48 5 0 7 -15 4 -32z m-31 -130 c-8 -27 -35 -58 -35 -41 0 19 22 63 32 63 5 0 6 -10 3 -22z m-46 -115 c-2 -42 -15 -66 -37 -70 -20 -3 -22 0 -16 25 10 41 23 62 39 62 8 0 15 -8 14 -17z m26 -113 c15 -28 14 -30 -3 -30 -11 0 -28 8 -40 18 -19 17 -19 19 -4 29 25 17 30 16 47 -17z"
       id="path125" />
    <path
       d="M2406 1721 c-3 -5 4 -51 15 -102 18 -80 20 -119 17 -254 -4 -153 -6 -165 -42 -270 -76 -226 -201 -396 -396 -539 -178 -131 -449 -216 -644 -202 -109 8 -225 30 -302 56 -31 11 -59 19 -60 17 -2 -2 0 -16 4 -32 10 -34 62 -55 203 -79 221 -38 448 -8 644 86 269 130 465 336 572 600 60 151 73 216 73 383 0 177 -21 302 -55 328 -13 9 -26 13 -29 8z"
       id="path127" />
    <path
       d="M680 1291 c-122 -17 -231 -60 -288 -115 -101 -95 -94 -226 18 -306 29 -21 65 -29 215 -50 89 -13 125 -30 125 -61 0 -12 -33 -55 -78 -102 -132 -139 -172 -212 -172 -316 0 -102 63 -186 160 -212 37 -10 54 -9 100 4 110 32 178 126 188 257 5 68 4 69 -22 76 -32 8 -51 -6 -77 -58 -22 -42 -49 -51 -49 -15 0 44 44 103 159 217 93 91 125 130 155 188 21 41 36 76 33 78 -3 3 -11 -5 -19 -19 -27 -50 -68 -107 -106 -146 -21 -23 -37 -43 -34 -46 3 -3 0 -5 -6 -5 -16 0 -164 -149 -184 -185 -33 -61 -22 -125 22 -125 10 0 33 18 51 41 43 54 57 40 40 -38 -27 -121 -101 -192 -203 -195 -106 -3 -179 75 -178 190 1 85 39 158 135 258 89 93 105 117 105 156 -1 51 -60 82 -180 94 -128 12 -152 21 -202 78 -72 81 -33 203 84 262 99 50 174 67 298 67 180 1 281 -38 356 -134 20 -27 34 -83 35 -143 0 -52 2 -57 11 -36 15 37 4 140 -21 188 -22 43 -81 93 -138 117 -73 31 -239 48 -333 36z"
       id="path129"
       style="fill:#11adc4;fill-opacity:1" />
    <path
       d="M1392 840 c-18 -66 -32 -129 -32 -140 0 -26 26 -26 40 1 10 18 33 249 26 256 -1 2 -17 -51 -34 -117z"
       id="path131" />
    <path
       d="M533 780 c-21 -9 -21 -10 -5 -42 21 -41 42 -69 64 -86 14 -11 20 -10 38 8 l21 21 -30 34 c-16 18 -32 43 -36 54 -7 23 -18 25 -52 11z"
       id="path133" />
    <path
       d="M692 767 c-13 -15 1 -42 17 -33 13 9 15 33 2 40 -5 3 -13 0 -19 -7z"
       id="path135" />
    <path
       d="M985 589 c-39 -37 -56 -61 -50 -67 15 -14 155 -60 205 -68 l44 -6 -47 47 c-34 34 -51 61 -63 101 -8 30 -18 53 -22 53 -4 -1 -34 -28 -67 -60z m82 -43 l22 -44 -22 5 c-44 10 -87 25 -87 30 0 8 50 53 59 53 4 0 17 -20 28 -44z"
       id="path137"
       style="fill:#e7b901;fill-opacity:1" />
  </g>
</svg>
